<svg xmlns="http://www.w3.org/2000/svg" width="128" height="112" viewBox="0 0 16 14" shape-rendering="crispEdges">
  <!-- Claw (idle) -->
  <rect x="5" y="0" width="1" height="2" fill="#cc3333"/>
  <rect x="4" y="0" width="1" height="1" fill="#dd4444"/>
  <rect x="10" y="0" width="1" height="2" fill="#cc3333"/>
  <rect x="11" y="0" width="1" height="1" fill="#dd4444"/>
  <rect x="4" y="2" width="8" height="8" fill="#cc3333"/>
  <rect x="3" y="3" width="10" height="6" fill="#cc3333"/>
  <rect x="5" y="3" width="6" height="6" fill="#d44444"/>
  <rect x="5" y="4" width="2" height="2" fill="#111"/>
  <rect x="6" y="4" width="1" height="1" fill="#333"/>
  <rect x="9" y="4" width="2" height="2" fill="#111"/>
  <rect x="10" y="4" width="1" height="1" fill="#333"/>
  <rect x="1" y="5" width="2" height="2" fill="#cc3333"/>
  <rect x="0" y="5" width="1" height="1" fill="#bb2222"/>
  <rect x="13" y="5" width="2" height="2" fill="#cc3333"/>
  <rect x="15" y="5" width="1" height="1" fill="#bb2222"/>
  <rect x="5" y="10" width="2" height="3" fill="#aa2222"/>
  <rect x="9" y="10" width="2" height="3" fill="#aa2222"/>
  <rect x="5" y="12" width="2" height="1" fill="#882222"/>
  <rect x="9" y="12" width="2" height="1" fill="#882222"/>
</svg>